<?xml version="1.0" encoding="utf-8"?>
<!-- Generator: Adobe Illustrator 22.0.1, SVG Export Plug-In . SVG Version: 6.00 Build 0)  -->
<svg version="1.1" id="Layer_1" xmlns="http://www.w3.org/2000/svg" xmlns:xlink="http://www.w3.org/1999/xlink" x="0px" y="0px"
	 viewBox="0 0 2356.9 400" style="enable-background:new 0 0 2356.9 400;" xml:space="preserve">
<style type="text/css">
	.st0{opacity:0.5;}
	.st1{fill:#FFFFFF;fill-opacity:5.000000e-02;}
	.st2{fill:#FFFFFF;fill-opacity:8.000000e-02;}
	.st3{fill:#FFFFFF;fill-opacity:0.12;}
	.st4{fill:#FFFFFF;fill-opacity:0.16;}
	.st5{fill:#FFFFFF;fill-opacity:4.000000e-02;}
	.st6{fill:#FFFFFF;fill-opacity:0.24;}
	.st7{fill:#FFFFFF;}
	.st8{opacity:0.5;fill:#FFFFFF;}
	.st9{opacity:0.2;fill:#FFFFFF;}
</style>
<g class="st0">
	<circle class="st1" cx="131.5" cy="77.5" r="10.5"/>
	<circle class="st1" cx="77.5" cy="127.5" r="10.5"/>
	<circle class="st2" cx="131.5" cy="127.5" r="10.5"/>
	<circle class="st2" cx="184.5" cy="127.5" r="10.5"/>
	<circle class="st2" cx="292.5" cy="127.5" r="10.5"/>
	<circle class="st2" cx="345.5" cy="127.5" r="10.5"/>
	<circle class="st2" cx="292.5" cy="173.5" r="10.5"/>
	<circle class="st2" cx="238.5" cy="173.5" r="10.5"/>
	<circle class="st2" cx="184.5" cy="173.5" r="10.5"/>
	<circle class="st2" cx="131.5" cy="173.5" r="10.5"/>
	<circle class="st2" cx="77.5" cy="173.5" r="10.5"/>
	<circle class="st2" cx="345.5" cy="173.5" r="10.5"/>
	<circle class="st2" cx="399.5" cy="127.5" r="10.5"/>
	<circle class="st2" cx="452.5" cy="127.5" r="10.5"/>
	<circle class="st2" cx="502.5" cy="127.5" r="10.5"/>
	<circle class="st3" cx="556.5" cy="127.5" r="10.5"/>
	<circle class="st3" cx="609.5" cy="127.5" r="10.5"/>
	<circle class="st3" cx="667.5" cy="127.5" r="10.5"/>
	<circle class="st3" cx="717.5" cy="127.5" r="10.5"/>
	<circle class="st3" cx="770.5" cy="127.5" r="10.5"/>
	<circle class="st3" cx="824.5" cy="127.5" r="10.5"/>
	<circle class="st3" cx="1020.5" cy="127.5" r="10.5"/>
	<circle class="st3" cx="1074.5" cy="127.5" r="10.5"/>
	<circle class="st3" cx="1124.5" cy="127.5" r="10.5"/>
	<circle class="st2" cx="1124.5" cy="173.5" r="10.5"/>
	<circle class="st3" cx="1177.5" cy="127.5" r="10.5"/>
	<circle class="st4" cx="1177.5" cy="173.5" r="10.5"/>
	<circle class="st4" cx="1074.5" cy="173.5" r="10.5"/>
	<circle class="st4" cx="1020.5" cy="173.5" r="10.5"/>
	<circle class="st4" cx="967.5" cy="173.5" r="10.5"/>
	<circle class="st4" cx="913.5" cy="173.5" r="10.5"/>
	<circle class="st2" cx="1074.5" cy="227.5" r="10.5"/>
	<circle class="st4" cx="1020.5" cy="227.5" r="10.5"/>
	<circle class="st4" cx="967.5" cy="227.5" r="10.5"/>
	<circle class="st4" cx="913.5" cy="227.5" r="10.5"/>
	<circle class="st5" cx="967.5" cy="277.5" r="10.5"/>
	<circle class="st5" cx="913.5" cy="277.5" r="10.5"/>
	<circle class="st4" cx="824.5" cy="173.5" r="10.5"/>
	<circle class="st4" cx="770.5" cy="173.5" r="10.5"/>
	<circle class="st4" cx="717.5" cy="173.5" r="10.5"/>
	<circle class="st4" cx="667.5" cy="173.5" r="10.5"/>
	<circle class="st4" cx="556.5" cy="173.5" r="10.5"/>
	<circle class="st4" cx="502.5" cy="173.5" r="10.5"/>
	<circle class="st4" cx="452.5" cy="173.5" r="10.5"/>
	<circle class="st6" cx="556.5" cy="227.5" r="10.5"/>
	<circle class="st6" cx="609.5" cy="227.5" r="10.5"/>
	<circle class="st6" cx="667.5" cy="227.5" r="10.5"/>
	<circle class="st6" cx="717.5" cy="227.5" r="10.5"/>
	<circle class="st6" cx="770.5" cy="227.5" r="10.5"/>
	<circle class="st4" cx="770.5" cy="277.5" r="10.5"/>
	<circle class="st4" cx="717.5" cy="277.5" r="10.5"/>
	<circle class="st4" cx="667.5" cy="277.5" r="10.5"/>
	<circle class="st4" cx="609.5" cy="277.5" r="10.5"/>
	<circle class="st4" cx="559.5" cy="277.5" r="10.5"/>
	<circle class="st4" cx="502.5" cy="277.5" r="10.5"/>
	<circle class="st4" cx="452.5" cy="277.5" r="10.5"/>
	<circle class="st4" cx="395.5" cy="277.5" r="10.5"/>
	<circle class="st4" cx="345.5" cy="277.5" r="10.5"/>
	<circle class="st4" cx="292.5" cy="277.5" r="10.5"/>
	<circle class="st4" cx="395.5" cy="227.5" r="10.5"/>
	<circle class="st4" cx="345.5" cy="227.5" r="10.5"/>
	<circle class="st4" cx="292.5" cy="227.5" r="10.5"/>
	<circle class="st4" cx="238.5" cy="227.5" r="10.5"/>
	<circle class="st2" cx="770.5" cy="323.5" r="10.5"/>
	<circle class="st5" cx="770.5" cy="370.5" r="10.5"/>
	<circle class="st2" cx="613.5" cy="323.5" r="10.5"/>
	<circle class="st2" cx="559.5" cy="323.5" r="10.5"/>
	<circle class="st2" cx="452.5" cy="323.5" r="10.5"/>
	<circle class="st2" cx="395.5" cy="323.5" r="10.5"/>
	<circle class="st2" cx="345.5" cy="323.5" r="10.5"/>
	<circle class="st2" cx="292.5" cy="323.5" r="10.5"/>
	<circle class="st2" cx="452.5" cy="370.5" r="10.5"/>
	<circle class="st5" cx="613.5" cy="370.5" r="10.5"/>
	<circle class="st5" cx="502.5" cy="370.5" r="10.5"/>
	<circle class="st5" cx="399.5" cy="370.5" r="10.5"/>
	<circle class="st5" cx="345.5" cy="370.5" r="10.5"/>
	<circle class="st5" cx="292.5" cy="370.5" r="10.5"/>
	<circle class="st2" cx="238.5" cy="323.5" r="10.5"/>
	<circle class="st2" cx="238.5" cy="277.5" r="10.5"/>
	<circle class="st5" cx="238.5" cy="370.5" r="10.5"/>
	<circle class="st2" cx="184.5" cy="323.5" r="10.5"/>
	<circle class="st2" cx="184.5" cy="273.5" r="10.5"/>
	<circle class="st7" cx="134.5" cy="373.5" r="14.5"/>
	<circle class="st8" cx="663.5" cy="320.5" r="14.5"/>
	<circle class="st8" cx="506.5" cy="320.5" r="14.5"/>
	<circle class="st8" cx="556.5" cy="370.5" r="14.5"/>
	<circle class="st9" cx="613.5" cy="173.5" r="14.5"/>
	<circle class="st2" cx="131.5" cy="323.5" r="10.5"/>
	<circle class="st2" cx="131.5" cy="277.5" r="10.5"/>
	<circle class="st2" cx="131.5" cy="223.5" r="10.5"/>
	<circle class="st2" cx="77.5" cy="323.5" r="10.5"/>
	<circle class="st2" cx="77.5" cy="370.5" r="10.5"/>
	<circle class="st2" cx="77.5" cy="277.5" r="10.5"/>
	<circle class="st2" cx="77.5" cy="223.5" r="10.5"/>
	<circle class="st2" cx="24.5" cy="323.5" r="10.5"/>
	<circle class="st5" cx="24.5" cy="277.5" r="10.5"/>
	<circle class="st5" cx="24.5" cy="223.5" r="10.5"/>
	<circle class="st5" cx="24.5" cy="370.5" r="10.5"/>
	<circle class="st2" cx="184.5" cy="223.5" r="10.5"/>
	<circle class="st5" cx="184.5" cy="370.5" r="10.5"/>
	<circle class="st6" cx="824.5" cy="227.5" r="10.5"/>
	<circle class="st6" cx="824.5" cy="277.5" r="10.5"/>
	<circle class="st6" cx="824.5" cy="323.5" r="10.5"/>
	<circle class="st6" cx="824.5" cy="370.5" r="10.5"/>
	<circle class="st6" cx="502.5" cy="227.5" r="10.5"/>
	<circle class="st6" cx="452.5" cy="227.5" r="10.5"/>
	<circle class="st4" cx="913.5" cy="127.5" r="10.5"/>
	<circle class="st1" cx="292.5" cy="77.5" r="10.5"/>
	<circle class="st1" cx="452.5" cy="77.5" r="10.5"/>
	<circle class="st1" cx="502.5" cy="77.5" r="10.5"/>
	<circle class="st1" cx="663.5" cy="77.5" r="10.5"/>
	<circle class="st1" cx="770.5" cy="77.5" r="10.5"/>
	<circle class="st1" cx="824.5" cy="77.5" r="10.5"/>
	<circle class="st1" cx="1020.5" cy="77.5" r="10.5"/>
	<circle class="st1" cx="1177.5" cy="77.5" r="10.5"/>
</g>
<g class="st0">
	<circle class="st1" cx="2224.5" cy="323.5" r="10.5"/>
	<circle class="st1" cx="2278.5" cy="273.5" r="10.5"/>
	<circle class="st2" cx="2224.5" cy="273.5" r="10.5"/>
	<circle class="st2" cx="2171.5" cy="273.5" r="10.5"/>
	<circle class="st2" cx="2063.5" cy="273.5" r="10.5"/>
	<circle class="st2" cx="2010.5" cy="273.5" r="10.5"/>
	<circle class="st2" cx="2063.5" cy="227.5" r="10.5"/>
	<circle class="st2" cx="2117.5" cy="227.5" r="10.5"/>
	<circle class="st2" cx="2171.5" cy="227.5" r="10.5"/>
	<circle class="st2" cx="2224.5" cy="227.5" r="10.5"/>
	<circle class="st2" cx="2278.5" cy="227.5" r="10.5"/>
	<circle class="st2" cx="2010.5" cy="227.5" r="10.5"/>
	<circle class="st2" cx="1956.5" cy="273.5" r="10.5"/>
	<circle class="st2" cx="1903.5" cy="273.5" r="10.5"/>
	<circle class="st2" cx="1853.5" cy="273.5" r="10.5"/>
	<circle class="st3" cx="1799.5" cy="273.5" r="10.5"/>
	<circle class="st3" cx="1746.5" cy="273.5" r="10.5"/>
	<circle class="st3" cx="1688.5" cy="273.5" r="10.5"/>
	<circle class="st3" cx="1638.5" cy="273.5" r="10.5"/>
	<circle class="st3" cx="1585.5" cy="273.5" r="10.5"/>
	<circle class="st3" cx="1531.5" cy="273.5" r="10.5"/>
	<circle class="st3" cx="1335.5" cy="273.5" r="10.5"/>
	<circle class="st3" cx="1281.5" cy="273.5" r="10.5"/>
	<circle class="st3" cx="1231.5" cy="273.5" r="10.5"/>
	<circle class="st2" cx="1231.5" cy="227.5" r="10.5"/>
	<circle class="st3" cx="1178.5" cy="273.5" r="10.5"/>
	<circle class="st4" cx="1178.5" cy="227.5" r="10.5"/>
	<circle class="st4" cx="1281.5" cy="227.5" r="10.5"/>
	<circle class="st4" cx="1335.5" cy="227.5" r="10.5"/>
	<circle class="st4" cx="1388.5" cy="227.5" r="10.5"/>
	<circle class="st4" cx="1442.5" cy="227.5" r="10.5"/>
	<circle class="st2" cx="1281.5" cy="173.5" r="10.5"/>
	<circle class="st4" cx="1335.5" cy="173.5" r="10.5"/>
	<circle class="st4" cx="1388.5" cy="173.5" r="10.5"/>
	<circle class="st4" cx="1442.5" cy="173.5" r="10.5"/>
	<circle class="st5" cx="1388.5" cy="123.5" r="10.5"/>
	<circle class="st5" cx="1442.5" cy="123.5" r="10.5"/>
	<circle class="st4" cx="1531.5" cy="227.5" r="10.5"/>
	<circle class="st4" cx="1585.5" cy="227.5" r="10.5"/>
	<circle class="st4" cx="1638.5" cy="227.5" r="10.5"/>
	<circle class="st4" cx="1688.5" cy="227.5" r="10.5"/>
	<circle class="st4" cx="1799.5" cy="227.5" r="10.5"/>
	<circle class="st4" cx="1853.5" cy="227.5" r="10.5"/>
	<circle class="st4" cx="1903.5" cy="227.5" r="10.5"/>
	<circle class="st6" cx="1799.5" cy="173.5" r="10.5"/>
	<circle class="st6" cx="1746.5" cy="173.5" r="10.5"/>
	<circle class="st6" cx="1688.5" cy="173.5" r="10.5"/>
	<circle class="st6" cx="1638.5" cy="173.5" r="10.5"/>
	<circle class="st6" cx="1585.5" cy="173.5" r="10.5"/>
	<circle class="st4" cx="1585.5" cy="123.5" r="10.5"/>
	<circle class="st4" cx="1638.5" cy="123.5" r="10.5"/>
	<circle class="st4" cx="1688.5" cy="123.5" r="10.5"/>
	<circle class="st4" cx="1746.5" cy="123.5" r="10.5"/>
	<circle class="st4" cx="1796.5" cy="123.5" r="10.5"/>
	<circle class="st4" cx="1853.5" cy="123.5" r="10.5"/>
	<circle class="st4" cx="1903.5" cy="123.5" r="10.5"/>
	<circle class="st4" cx="1960.5" cy="123.5" r="10.5"/>
	<circle class="st4" cx="2010.5" cy="123.5" r="10.5"/>
	<circle class="st4" cx="2063.5" cy="123.5" r="10.5"/>
	<circle class="st4" cx="1960.5" cy="173.5" r="10.5"/>
	<circle class="st4" cx="2010.5" cy="173.5" r="10.5"/>
	<circle class="st4" cx="2063.5" cy="173.5" r="10.5"/>
	<circle class="st4" cx="2117.5" cy="173.5" r="10.5"/>
	<circle class="st2" cx="1585.5" cy="77.5" r="10.5"/>
	<circle class="st5" cx="1585.5" cy="30.5" r="10.5"/>
	<circle class="st2" cx="1742.5" cy="77.5" r="10.5"/>
	<circle class="st2" cx="1796.5" cy="77.5" r="10.5"/>
	<circle class="st2" cx="1903.5" cy="77.5" r="10.5"/>
	<circle class="st2" cx="1960.5" cy="77.5" r="10.5"/>
	<circle class="st2" cx="2010.5" cy="77.5" r="10.5"/>
	<circle class="st2" cx="2063.5" cy="77.5" r="10.5"/>
	<circle class="st2" cx="1903.5" cy="30.5" r="10.5"/>
	<circle class="st5" cx="1742.5" cy="30.5" r="10.5"/>
	<circle class="st5" cx="1853.5" cy="30.5" r="10.5"/>
	<circle class="st5" cx="1956.5" cy="30.5" r="10.5"/>
	<circle class="st5" cx="2010.5" cy="30.5" r="10.5"/>
	<circle class="st5" cx="2063.5" cy="30.5" r="10.5"/>
	<circle class="st2" cx="2117.5" cy="77.5" r="10.5"/>
	<circle class="st2" cx="2117.5" cy="123.5" r="10.5"/>
	<circle class="st5" cx="2117.5" cy="30.5" r="10.5"/>
	<circle class="st2" cx="2171.5" cy="77.5" r="10.5"/>
	<circle class="st2" cx="2171.5" cy="127.5" r="10.5"/>
	<circle class="st7" cx="2221.5" cy="27.5" r="14.5"/>
	<circle class="st8" cx="1692.5" cy="80.5" r="14.5"/>
	<circle class="st8" cx="1849.5" cy="80.5" r="14.5"/>
	<circle class="st8" cx="1799.5" cy="30.5" r="14.5"/>
	<circle class="st9" cx="1742.5" cy="227.5" r="14.5"/>
	<circle class="st2" cx="2224.5" cy="77.5" r="10.5"/>
	<circle class="st2" cx="2224.5" cy="123.5" r="10.5"/>
	<circle class="st2" cx="2224.5" cy="177.5" r="10.5"/>
	<circle class="st2" cx="2278.5" cy="77.5" r="10.5"/>
	<circle class="st2" cx="2278.5" cy="30.5" r="10.5"/>
	<circle class="st2" cx="2278.5" cy="123.5" r="10.5"/>
	<circle class="st2" cx="2278.5" cy="177.5" r="10.5"/>
	<circle class="st2" cx="2331.5" cy="77.5" r="10.5"/>
	<circle class="st5" cx="2331.5" cy="123.5" r="10.5"/>
	<circle class="st5" cx="2331.5" cy="177.5" r="10.5"/>
	<circle class="st5" cx="2331.5" cy="30.5" r="10.5"/>
	<circle class="st2" cx="2171.5" cy="177.5" r="10.5"/>
	<circle class="st5" cx="2171.5" cy="30.5" r="10.5"/>
	<circle class="st6" cx="1531.5" cy="173.5" r="10.5"/>
	<circle class="st6" cx="1531.5" cy="123.5" r="10.5"/>
	<circle class="st6" cx="1531.5" cy="77.5" r="10.5"/>
	<circle class="st6" cx="1531.5" cy="30.5" r="10.5"/>
	<circle class="st6" cx="1853.5" cy="173.5" r="10.5"/>
	<circle class="st6" cx="1903.5" cy="173.5" r="10.5"/>
	<circle class="st4" cx="1442.5" cy="273.5" r="10.5"/>
	<circle class="st1" cx="2063.5" cy="323.5" r="10.5"/>
	<circle class="st1" cx="1903.5" cy="323.5" r="10.5"/>
	<circle class="st1" cx="1853.5" cy="323.5" r="10.5"/>
	<circle class="st1" cx="1692.5" cy="323.5" r="10.5"/>
	<circle class="st1" cx="1585.5" cy="323.5" r="10.5"/>
	<circle class="st1" cx="1531.5" cy="323.5" r="10.5"/>
	<circle class="st1" cx="1335.5" cy="323.5" r="10.5"/>
	<circle class="st1" cx="1178.5" cy="323.5" r="10.5"/>
</g>
</svg>
